<svg width="394" height="40" viewBox="0 0 394 40" fill="none" xmlns="http://www.w3.org/2000/svg">
<path d="M125.088 3.35775C125.073 3.32965 125.05 3.30763 125.02 3.29563C121.649 1.74339 118.091 0.636514 114.436 0.00271499C114.403 -0.00348027 114.368 0.000989063 114.338 0.0154874C114.307 0.0299857 114.282 0.0537748 114.266 0.0834715C113.781 0.965838 113.342 1.87217 112.948 2.79902C109.008 2.19883 105 2.19883 101.06 2.79902C100.664 1.86982 100.217 0.963259 99.7216 0.0834715C99.7046 0.0544202 99.6792 0.0311789 99.6489 0.0167748C99.6185 0.00237067 99.5846 -0.00252871 99.5514 0.00271499C95.8958 0.635184 92.3377 1.74214 88.9667 3.29572C88.9379 3.308 88.9135 3.32896 88.897 3.35571C82.1557 13.4581 80.309 23.3121 81.2149 33.044C81.2174 33.0679 81.2247 33.091 81.2364 33.1119C81.248 33.1329 81.2637 33.1513 81.2825 33.1661C85.208 36.0827 89.5986 38.3089 94.2671 39.7499C94.3 39.7598 94.3351 39.7593 94.3677 39.7486C94.4003 39.7379 94.4289 39.7174 94.4496 39.6899C95.4522 38.3208 96.3407 36.8711 97.1059 35.3555C97.1164 35.3347 97.1224 35.3119 97.1235 35.2886C97.1246 35.2653 97.1208 35.242 97.1123 35.2203C97.1037 35.1986 97.0907 35.179 97.0741 35.1627C97.0575 35.1464 97.0376 35.1338 97.0158 35.1258C95.6147 34.5879 94.2584 33.9394 92.9594 33.1865C92.9358 33.1726 92.916 33.153 92.9017 33.1296C92.8874 33.1062 92.8791 33.0796 92.8775 33.0521C92.8759 33.0247 92.881 32.9973 92.8924 32.9724C92.9039 32.9474 92.9213 32.9257 92.9431 32.9091C93.2156 32.7042 93.4883 32.491 93.7486 32.2757C93.7717 32.2566 93.7997 32.2443 93.8294 32.2403C93.8591 32.2363 93.8893 32.2407 93.9166 32.253C102.427 36.1503 111.64 36.1503 120.049 32.253C120.077 32.2399 120.107 32.2349 120.137 32.2386C120.168 32.2422 120.196 32.2544 120.22 32.2737C120.48 32.4889 120.753 32.7042 121.027 32.9091C121.049 32.9255 121.067 32.9471 121.078 32.972C121.09 32.9968 121.095 33.0242 121.094 33.0516C121.092 33.079 121.084 33.1057 121.07 33.1292C121.056 33.1527 121.036 33.1724 121.013 33.1865C119.717 33.9457 118.359 34.5938 116.954 35.1237C116.933 35.1321 116.913 35.1449 116.896 35.1615C116.88 35.178 116.867 35.1979 116.859 35.2197C116.85 35.2416 116.847 35.265 116.848 35.2884C116.849 35.3118 116.855 35.3346 116.866 35.3555C117.644 36.8627 118.531 38.3105 119.52 39.6875C119.54 39.7157 119.569 39.7369 119.602 39.7481C119.634 39.7592 119.67 39.7597 119.703 39.7496C124.38 38.3135 128.778 36.0871 132.708 33.1661C132.727 33.1521 132.743 33.1341 132.755 33.1134C132.767 33.0927 132.774 33.0698 132.776 33.0461C133.861 21.7949 130.96 12.0217 125.088 3.35775ZM98.3768 27.1183C95.8146 27.1183 93.7035 24.7589 93.7035 21.8612C93.7035 18.9636 95.7737 16.604 98.3768 16.604C101 16.604 103.091 18.9841 103.05 21.861C103.05 24.7589 100.98 27.1183 98.3768 27.1183ZM115.655 27.1183C113.093 27.1183 110.982 24.7589 110.982 21.8612C110.982 18.9636 113.052 16.604 115.655 16.604C118.279 16.604 120.37 18.9841 120.329 21.861C120.329 24.7589 118.279 27.1183 115.655 27.1183Z" fill="#E0FFF8"/>
<path d="M388.963 9.87298C388.994 10.3063 388.994 10.7396 388.994 11.1729C388.994 24.3885 378.89 39.6159 360.421 39.6159C354.732 39.6159 349.446 37.9755 345 35.1282C345.808 35.221 346.586 35.2519 347.425 35.2519C352.12 35.2519 356.442 33.6735 359.893 30.9809C355.478 30.888 351.778 28.0097 350.503 24.0481C351.125 24.1409 351.747 24.2028 352.4 24.2028C353.301 24.2028 354.203 24.0789 355.043 23.8624C350.441 22.9338 346.99 18.9104 346.99 14.0512V13.9275C348.327 14.6703 349.881 15.1345 351.529 15.1964C348.824 13.4012 347.052 10.3372 347.052 6.87081C347.052 5.01385 347.549 3.3116 348.42 1.826C353.364 7.89217 360.794 11.8537 369.127 12.2871C368.971 11.5443 368.878 10.7706 368.878 9.99683C368.878 4.48768 373.355 0 378.921 0C381.812 0 384.424 1.20704 386.258 3.15689C388.528 2.72361 390.704 1.88792 392.632 0.742803C391.886 3.0641 390.3 5.01394 388.217 6.25185C390.238 6.03531 392.197 5.47809 394 4.70442C392.632 6.68513 390.922 8.4492 388.963 9.87298Z" fill="#E0FFF8"/>
<path d="M267.954 39.6159H259.661V13.1664H267.954V39.6159ZM263.803 9.55843C261.151 9.55843 259 7.38304 259 4.75666C259 3.49512 259.506 2.28524 260.407 1.39319C261.307 0.501147 262.529 0 263.803 0C265.076 0 266.298 0.501147 267.199 1.39319C268.099 2.28524 268.605 3.49512 268.605 4.75666C268.605 7.38304 266.454 9.55843 263.803 9.55843ZM298.991 39.6159H290.716V26.7404C290.716 23.6719 290.654 19.7367 286.404 19.7367C282.093 19.7367 281.432 23.0706 281.432 26.5193V39.6159H273.148V13.1664H281.102V16.7743H281.218C282.325 14.6962 285.029 12.5032 289.064 12.5032C297.457 12.5032 299 17.977 299 25.0868V39.6159H298.991Z" fill="#E0FFF8"/>
<path d="M186.379 31.8986C186.379 32.0625 186.194 32.1935 185.96 32.1935C185.694 32.2181 185.508 32.087 185.508 31.8986C185.508 31.7348 185.694 31.6037 185.927 31.6037C186.169 31.5792 186.379 31.7102 186.379 31.8986ZM183.871 31.53C183.815 31.6938 183.976 31.8823 184.218 31.9314C184.427 32.0133 184.669 31.9314 184.718 31.7676C184.766 31.6037 184.613 31.4153 184.371 31.3416C184.161 31.2843 183.927 31.3662 183.871 31.53ZM187.435 31.3908C187.202 31.4481 187.04 31.6037 187.065 31.7921C187.089 31.956 187.298 32.0625 187.54 32.0051C187.774 31.9478 187.935 31.7921 187.911 31.6283C187.887 31.4727 187.669 31.3662 187.435 31.3908ZM192.742 0C181.556 0 173 8.6259 173 19.9878C173 29.0725 178.629 36.8465 186.669 39.5825C187.702 39.7709 188.065 39.1238 188.065 38.5913C188.065 38.0834 188.04 35.2818 188.04 33.5616C188.04 33.5616 182.395 34.7903 181.21 31.1204C181.21 31.1204 180.29 28.7366 178.968 28.1222C178.968 28.1222 177.121 26.8361 179.097 26.8607C179.097 26.8607 181.105 27.0246 182.21 28.9742C183.976 32.1362 186.935 31.2269 188.089 30.6863C188.274 29.3756 188.798 28.4663 189.379 27.9256C184.871 27.4178 180.323 26.7542 180.323 18.8738C180.323 16.621 180.935 15.4906 182.226 14.0488C182.016 13.5164 181.331 11.321 182.435 8.48664C184.121 7.95418 188 10.6984 188 10.6984C189.613 10.2397 191.347 10.0021 193.065 10.0021C194.782 10.0021 196.516 10.2397 198.129 10.6984C198.129 10.6984 202.008 7.94599 203.694 8.48664C204.798 11.3292 204.113 13.5164 203.903 14.0488C205.194 15.4988 205.984 16.6292 205.984 18.8738C205.984 26.7788 201.234 27.4096 196.726 27.9256C197.468 28.5728 198.097 29.8016 198.097 31.7266C198.097 34.4872 198.073 37.9032 198.073 38.5749C198.073 39.1074 198.444 39.7545 199.468 39.5661C207.532 36.8464 213 29.0725 213 19.9878C213 8.6259 203.927 0 192.742 0ZM180.839 28.2533C180.734 28.3352 180.758 28.5236 180.895 28.6793C181.024 28.8104 181.21 28.8677 181.315 28.7612C181.419 28.6793 181.395 28.4909 181.258 28.3352C181.129 28.2042 180.944 28.1468 180.839 28.2533ZM179.968 27.5898C179.911 27.6963 179.992 27.8273 180.153 27.9093C180.282 27.9912 180.444 27.9666 180.5 27.8519C180.556 27.7454 180.476 27.6144 180.315 27.5324C180.153 27.4833 180.024 27.5079 179.968 27.5898ZM182.581 30.506C182.452 30.6125 182.5 30.8583 182.685 31.0139C182.871 31.2023 183.105 31.2269 183.21 31.0958C183.315 30.9894 183.266 30.7436 183.105 30.588C182.927 30.3995 182.685 30.375 182.581 30.506ZM181.661 29.3019C181.532 29.3838 181.532 29.5968 181.661 29.7852C181.79 29.9736 182.008 30.0555 182.113 29.9736C182.242 29.8671 182.242 29.6541 182.113 29.4657C182 29.2773 181.79 29.1954 181.661 29.3019Z" fill="#E0FFF8"/>
<path d="M20.0045 9.65093C14.3291 9.65093 9.75125 14.1858 9.75125 19.8079C9.75125 25.4301 14.3291 29.9649 20.0045 29.9649C25.6799 29.9649 30.2577 25.4301 30.2577 19.8079C30.2577 14.1858 25.6799 9.65093 20.0045 9.65093ZM20.0045 26.4113C16.3369 26.4113 13.3385 23.45 13.3385 19.8079C13.3385 16.1659 16.3279 13.2046 20.0045 13.2046C23.681 13.2046 26.6704 16.1659 26.6704 19.8079C26.6704 23.45 23.6721 26.4113 20.0045 26.4113ZM33.0686 9.23545C33.0686 10.5526 31.9978 11.6045 30.6771 11.6045C29.3475 11.6045 28.2856 10.5438 28.2856 9.23545C28.2856 7.92715 29.3564 6.86637 30.6771 6.86637C31.9978 6.86637 33.0686 7.92715 33.0686 9.23545ZM39.8595 11.6399C39.7078 8.46638 38.976 5.65531 36.6291 3.33926C34.2911 1.02321 31.4534 0.298346 28.2499 0.139228C24.9481 -0.0464093 15.0519 -0.0464093 11.7501 0.139228C8.55549 0.289506 5.71779 1.01437 3.37089 3.33042C1.02398 5.64647 0.301171 8.45754 0.140547 11.6311C-0.0468489 14.9018 -0.0468489 24.7052 0.140547 27.976C0.292248 31.1495 1.02398 33.9606 3.37089 36.2766C5.71779 38.5927 8.54657 39.3175 11.7501 39.4766C15.0519 39.6623 24.9481 39.6623 28.2499 39.4766C31.4534 39.3264 34.2911 38.6015 36.6291 36.2766C38.9671 33.9606 39.6988 31.1495 39.8595 27.976C40.0468 24.7052 40.0468 14.9106 39.8595 11.6399ZM35.594 31.4854C34.8979 33.218 33.5505 34.5528 31.7925 35.2512C29.1601 36.2854 22.9136 36.0468 20.0045 36.0468C17.0954 36.0468 10.8399 36.2766 8.2164 35.2512C6.46737 34.5617 5.11991 33.2269 4.41495 31.4854C3.37089 28.8776 3.61182 22.6897 3.61182 19.8079C3.61182 16.9261 3.37981 10.7294 4.41495 8.13047C5.11099 6.39785 6.45845 5.06303 8.2164 4.36468C10.8489 3.33042 17.0954 3.5691 20.0045 3.5691C22.9136 3.5691 29.169 3.33926 31.7925 4.36468C33.5416 5.05419 34.889 6.38901 35.594 8.13047C36.638 10.7382 36.3971 16.9261 36.3971 19.8079C36.3971 22.6897 36.638 28.8865 35.594 31.4854Z" fill="#2F8D46"/>
</svg>
